<svg id="Layer_1" data-name="Layer 1" xmlns="http://www.w3.org/2000/svg" viewBox="0 0 946.24 186.91"><defs><style>.cls-1{font-size:141.12px;font-family:FashionFetish, Fashion Fetish;}.cls-1,.cls-3{fill:#464646;}.cls-2{fill:#e98521;}</style></defs><text class="cls-1" transform="translate(0 128.77) scale(1.12 1)">Summ</text><polygon class="cls-2" points="654.78 5.89 694.42 128.77 661.12 128.77 622.28 5.89 654.78 5.89"/><polygon class="cls-3" points="595.32 5.89 555.68 128.77 588.98 128.77 627.83 5.89 595.32 5.89"/><rect class="cls-2" x="697.71" y="5.89" width="31.59" height="121.82"/><rect class="cls-2" x="825.08" y="502.06" width="26.6" height="96.59" transform="translate(1337.81 -724.53) rotate(90)"/><rect class="cls-2" x="825.08" y="430.12" width="26.6" height="96.59" transform="translate(1265.87 -796.47) rotate(90)"/><path class="cls-3" d="M790.09,515.56l96.59-30v28.82l-96.59,27.34Z" transform="translate(-50.93 -436.5)"/><path class="cls-2" d="M996.61,520.58H927q.56,8.08,4.79,12a15.17,15.17,0,0,0,10.79,4q9.19,0,13.14-7.73h39.24A42,42,0,0,1,985.44,547a48.62,48.62,0,0,1-17.74,12.56A59.6,59.6,0,0,1,944,564.15q-15.59,0-27.69-6.15a45.83,45.83,0,0,1-19-17.57q-6.85-11.41-6.85-26.88t6.76-26.79a45.39,45.39,0,0,1,18.86-17.48q12.12-6.15,27.88-6.15,15.59,0,27.6,6a44.7,44.7,0,0,1,18.77,17.12q6.76,11.16,6.76,26.27A59.2,59.2,0,0,1,996.61,520.58Zm-37-16.69a12,12,0,0,0-4.5-9.92,17.48,17.48,0,0,0-11.27-3.61,17.3,17.3,0,0,0-11.07,3.43q-4.32,3.42-5.63,10.1Z" transform="translate(-50.93 -436.5)"/></svg>